<svg xmlns="http://www.w3.org/2000/svg" version="1.1" xmlns:xlink="http://www.w3.org/1999/xlink" viewBox="0 0 200 200" width="200" height="200"><metadata><rdf:RDF xmlns:rdf="http://www.w3.org/1999/02/22-rdf-syntax-ns#" xmlns:dc="http://purl.org/dc/elements/1.1/"><rdf:Description><dc:creator>RealFaviconGenerator</dc:creator><dc:source>https://realfavicongenerator.net</dc:source></rdf:Description></rdf:RDF></metadata><rect width="200" height="200" fill="url('#gradient')"></rect><defs><linearGradient id="gradient" gradientTransform="rotate(45 0.5 0.5)"><stop offset="0%" stop-color="#160f0b"></stop><stop offset="100%" stop-color="#2f4c22"></stop></linearGradient></defs><g><g fill="#e59619" transform="matrix(1.4232105628908964,0,0,1.4232105628908964,8.471804530443293,107.71372315815707)" stroke="#c8512e" stroke-width="0.2"><path d="M5.75 0L1.07 0L1.07-14.22L5.65-14.22Q7.54-14.22 9.04-13.36Q10.55-12.51 11.39-10.95Q12.24-9.39 12.25-7.46L12.25-7.46L12.25-6.81Q12.25-4.85 11.42-3.31Q10.60-1.76 9.10-0.88Q7.60-0.01 5.75 0L5.75 0ZM5.65-11.57L4.50-11.57L4.50-2.64L5.69-2.64Q7.17-2.64 7.96-3.69Q8.75-4.74 8.75-6.81L8.75-6.81L8.75-7.42Q8.75-9.48 7.96-10.53Q7.17-11.57 5.65-11.57L5.65-11.57ZM17.32-10.57L17.32 0L14.02 0L14.02-10.57L17.32-10.57ZM13.83-13.29L13.83-13.29Q13.83-13.99 14.34-14.44Q14.84-14.89 15.65-14.89Q16.46-14.89 16.97-14.44Q17.48-13.99 17.48-13.29Q17.48-12.59 16.97-12.14Q16.46-11.69 15.65-11.69Q14.84-11.69 14.34-12.14Q13.83-12.59 13.83-13.29ZM18.96-5.24L18.96-5.36Q18.96-6.96 19.49-8.19Q20.02-9.42 21.01-10.09Q21.99-10.76 23.30-10.76L23.30-10.76Q24.95-10.76 25.88-9.65L25.88-9.65L26.00-10.57L28.98-10.57L28.98-0.40Q28.98 1.00 28.33 2.03Q27.69 3.06 26.46 3.61Q25.22 4.16 23.60 4.16L23.60 4.16Q22.44 4.16 21.35 3.72Q20.26 3.28 19.69 2.58L19.69 2.58L21.06 0.64Q21.98 1.73 23.49 1.73L23.49 1.73Q25.67 1.73 25.67-0.52L25.67-0.52L25.67-0.85Q24.73 0.20 23.28 0.20L23.28 0.20Q21.35 0.20 20.16-1.28Q18.96-2.76 18.96-5.24L18.96-5.24ZM22.27-5.16L22.27-5.16Q22.27-3.86 22.75-3.10Q23.24-2.34 24.12-2.34L24.12-2.34Q25.19-2.34 25.67-3.06L25.67-3.06L25.67-7.50Q25.20-8.22 24.14-8.22L24.14-8.22Q23.26-8.22 22.76-7.44Q22.27-6.65 22.27-5.16ZM34.33-10.57L34.33 0L31.03 0L31.03-10.57L34.33-10.57ZM30.83-13.29L30.83-13.29Q30.83-13.99 31.34-14.44Q31.85-14.89 32.66-14.89Q33.47-14.89 33.97-14.44Q34.48-13.99 34.48-13.29Q34.48-12.59 33.97-12.14Q33.47-11.69 32.66-11.69Q31.85-11.69 31.34-12.14Q30.83-12.59 30.83-13.29ZM36.89-13.19L40.19-13.19L40.19-10.57L41.92-10.57L41.92-8.28L40.19-8.28L40.19-3.45Q40.19-2.85 40.40-2.62Q40.62-2.38 41.25-2.38L41.25-2.38Q41.74-2.38 42.07-2.44L42.07-2.44L42.07-0.09Q41.18 0.20 40.21 0.20L40.21 0.20Q38.52 0.20 37.71-0.61Q36.89-1.41 36.89-3.04L36.89-3.04L36.89-8.28L35.55-8.28L35.55-10.57L36.89-10.57L36.89-13.19ZM52.46 0L49.17 0Q48.99-0.32 48.86-0.95L48.86-0.95Q47.95 0.20 46.32 0.20L46.32 0.20Q44.82 0.20 43.78-0.71Q42.73-1.61 42.73-2.98L42.73-2.98Q42.73-4.70 44.00-5.58Q45.27-6.46 47.70-6.46L47.70-6.46L48.71-6.46L48.71-7.01Q48.71-8.47 47.45-8.47L47.45-8.47Q46.28-8.47 46.28-7.31L46.28-7.31L42.99-7.31Q42.99-8.85 44.29-9.80Q45.60-10.76 47.62-10.76Q49.64-10.76 50.81-9.78Q51.98-8.79 52.01-7.07L52.01-7.07L52.01-2.39Q52.03-0.94 52.46-0.17L52.46-0.17L52.46 0ZM47.11-2.15L47.11-2.15Q47.72-2.15 48.13-2.41Q48.54-2.68 48.71-3.01L48.71-3.01L48.71-4.70L47.75-4.70Q46.04-4.70 46.04-3.15L46.04-3.15Q46.04-2.71 46.34-2.43Q46.64-2.15 47.11-2.15ZM57.30-15L57.30 0L54.00 0L54.00-15L57.30-15ZM76.10-7.60L76.10-1.76Q75.31-0.88 73.79-0.34Q72.27 0.20 70.45 0.20L70.45 0.20Q67.66 0.20 65.99-1.51Q64.32-3.22 64.20-6.27L64.20-6.27L64.19-7.50Q64.19-9.60 64.93-11.17Q65.67-12.73 67.06-13.58Q68.44-14.42 70.25-14.42L70.25-14.42Q72.91-14.42 74.38-13.21Q75.85-11.99 76.09-9.58L76.09-9.58L72.79-9.58Q72.62-10.77 72.03-11.28Q71.45-11.79 70.37-11.79L70.37-11.79Q69.08-11.79 68.38-10.69Q67.68-9.60 67.67-7.57L67.67-7.57L67.67-6.71Q67.67-4.58 68.39-3.51Q69.12-2.44 70.68-2.44L70.68-2.44Q72.02-2.44 72.68-3.04L72.68-3.04L72.68-5.24L70.29-5.24L70.29-7.60L76.10-7.60ZM87.19 0L83.90 0Q83.72-0.32 83.58-0.95L83.58-0.95Q82.68 0.20 81.04 0.20L81.04 0.20Q79.55 0.20 78.51-0.71Q77.46-1.61 77.46-2.98L77.46-2.98Q77.46-4.70 78.73-5.58Q80-6.46 82.42-6.46L82.42-6.46L83.44-6.46L83.44-7.01Q83.44-8.47 82.18-8.47L82.18-8.47Q81.01-8.47 81.01-7.31L81.01-7.31L77.71-7.31Q77.71-8.85 79.02-9.80Q80.32-10.76 82.34-10.76Q84.37-10.76 85.54-9.78Q86.71-8.79 86.74-7.07L86.74-7.07L86.74-2.39Q86.76-0.94 87.19-0.17L87.19-0.17L87.19 0ZM81.84-2.15L81.84-2.15Q82.45-2.15 82.86-2.41Q83.26-2.68 83.44-3.01L83.44-3.01L83.44-4.70L82.48-4.70Q80.76-4.70 80.76-3.15L80.76-3.15Q80.76-2.71 81.06-2.43Q81.37-2.15 81.84-2.15ZM95.01-10.64L94.95-7.59L93.87-7.67Q92.31-7.67 91.88-6.69L91.88-6.69L91.88 0L88.58 0L88.58-10.57L91.67-10.57L91.78-9.21Q92.61-10.76 94.09-10.76L94.09-10.76Q94.62-10.76 95.01-10.64L95.01-10.64ZM95.54-5.36L95.54-5.36Q95.54-7.87 96.62-9.32Q97.71-10.76 99.65-10.76L99.65-10.76Q101.06-10.76 102.03-9.65L102.03-9.65L102.03-15L105.33-15L105.33 0L102.37 0L102.21-1.13Q101.19 0.20 99.63 0.20L99.63 0.20Q97.74 0.20 96.64-1.25Q95.54-2.70 95.54-5.36ZM98.84-5.76L98.83-5.16Q98.83-2.34 100.47-2.34L100.47-2.34Q101.56-2.34 102.03-3.26L102.03-3.26L102.03-7.29Q101.58-8.22 100.49-8.22L100.49-8.22Q98.96-8.22 98.84-5.76L98.84-5.76ZM112.31 0.20L112.31 0.20Q109.88 0.20 108.38-1.25Q106.88-2.71 106.88-5.03L106.88-5.03L106.88-5.30Q106.88-6.92 107.48-8.16Q108.08-9.40 109.23-10.08Q110.38-10.76 111.96-10.76L111.96-10.76Q114.19-10.76 115.48-9.38Q116.77-8.00 116.77-5.53L116.77-5.53L116.77-4.25L110.22-4.25Q110.40-3.36 111.00-2.85Q111.59-2.34 112.54-2.34L112.54-2.34Q114.10-2.34 114.98-3.44L114.98-3.44L116.48-1.66Q115.87-0.81 114.74-0.31Q113.61 0.20 112.31 0.20ZM111.94-8.22L111.94-8.22Q110.50-8.22 110.22-6.31L110.22-6.31L113.54-6.31L113.54-6.56Q113.56-7.35 113.14-7.79Q112.72-8.22 111.94-8.22ZM118.03-10.57L121.11-10.57L121.22-9.33Q122.31-10.76 124.24-10.76L124.24-10.76Q125.89-10.76 126.70-9.78Q127.52-8.79 127.55-6.81L127.55-6.81L127.55 0L124.25 0L124.25-6.67Q124.25-7.47 123.93-7.85Q123.60-8.22 122.75-8.22L122.75-8.22Q121.79-8.22 121.32-7.46L121.32-7.46L121.32 0L118.03 0L118.03-10.57Z"></path></g></g></svg>